<?xml version="1.0" encoding="UTF-8" standalone="no"?>
<!DOCTYPE svg PUBLIC "-//W3C//DTD SVG 1.1//EN"
 "http://www.w3.org/Graphics/SVG/1.1/DTD/svg11.dtd">
<!-- Generated by graphviz version 2.38.0 (20140413.2041)
 -->
<!-- Title: LinearColumn Pages: 1 -->
<svg width="1558pt" height="45pt"
 viewBox="0.00 0.00 1558.00 45.00" xmlns="http://www.w3.org/2000/svg" xmlns:xlink="http://www.w3.org/1999/xlink">
<g id="graph0" class="graph" transform="scale(1 1) rotate(0) translate(4 41)">
<title>LinearColumn</title>
<polygon fill="white" stroke="none" points="-4,4 -4,-41 1554,-41 1554,4 -4,4"/>
<!-- 0 -->
<g id="node1" class="node"><title>0</title>
<polygon fill="#eee5de" stroke="black" points="0,-0.5 0,-36.5 54,-36.5 54,-0.5 0,-0.5"/>
<text text-anchor="middle" x="27" y="-14.8" font-family="Times New Roman,serif" font-size="14.00">Inicio</text>
</g>
<!-- 1 -->
<g id="node2" class="node"><title>1</title>
<polygon fill="#eee5de" stroke="black" points="90,-0.5 90,-36.5 189,-36.5 189,-0.5 90,-0.5"/>
<text text-anchor="middle" x="139.5" y="-14.8" font-family="Times New Roman,serif" font-size="14.00">(9,3)139&#45;69&#45;19</text>
</g>
<!-- 0&#45;&gt;1 -->
<g id="edge1" class="edge"><title>0&#45;&gt;1</title>
<path fill="none" stroke="black" d="M54.187,-18.5C61.9771,-18.5 70.8449,-18.5 79.8337,-18.5"/>
<polygon fill="black" stroke="black" points="79.9829,-22.0001 89.9828,-18.5 79.9828,-15.0001 79.9829,-22.0001"/>
</g>
<!-- 2 -->
<g id="node3" class="node"><title>2</title>
<polygon fill="#eee5de" stroke="black" points="225,-0.5 225,-36.5 324,-36.5 324,-0.5 225,-0.5"/>
<text text-anchor="middle" x="274.5" y="-14.8" font-family="Times New Roman,serif" font-size="14.00">(9,5)139&#45;69&#45;19</text>
</g>
<!-- 1&#45;&gt;2 -->
<g id="edge2" class="edge"><title>1&#45;&gt;2</title>
<path fill="none" stroke="black" d="M189.269,-18.5C197.491,-18.5 206.104,-18.5 214.551,-18.5"/>
<polygon fill="black" stroke="black" points="214.737,-22.0001 224.737,-18.5 214.737,-15.0001 214.737,-22.0001"/>
</g>
<!-- 3 -->
<g id="node4" class="node"><title>3</title>
<polygon fill="#eee5de" stroke="black" points="360,-0.5 360,-36.5 466,-36.5 466,-0.5 360,-0.5"/>
<text text-anchor="middle" x="413" y="-14.8" font-family="Times New Roman,serif" font-size="14.00">(10,3)139&#45;69&#45;19</text>
</g>
<!-- 2&#45;&gt;3 -->
<g id="edge3" class="edge"><title>2&#45;&gt;3</title>
<path fill="none" stroke="black" d="M324.009,-18.5C332.381,-18.5 341.186,-18.5 349.859,-18.5"/>
<polygon fill="black" stroke="black" points="349.945,-22.0001 359.945,-18.5 349.945,-15.0001 349.945,-22.0001"/>
</g>
<!-- 4 -->
<g id="node5" class="node"><title>4</title>
<polygon fill="#eee5de" stroke="black" points="502,-0.5 502,-36.5 608,-36.5 608,-0.5 502,-0.5"/>
<text text-anchor="middle" x="555" y="-14.8" font-family="Times New Roman,serif" font-size="14.00">(10,4)139&#45;69&#45;19</text>
</g>
<!-- 3&#45;&gt;4 -->
<g id="edge4" class="edge"><title>3&#45;&gt;4</title>
<path fill="none" stroke="black" d="M466.131,-18.5C474.421,-18.5 483.07,-18.5 491.568,-18.5"/>
<polygon fill="black" stroke="black" points="491.826,-22.0001 501.826,-18.5 491.826,-15.0001 491.826,-22.0001"/>
</g>
<!-- 5 -->
<g id="node6" class="node"><title>5</title>
<polygon fill="#eee5de" stroke="black" points="644,-0.5 644,-36.5 750,-36.5 750,-0.5 644,-0.5"/>
<text text-anchor="middle" x="697" y="-14.8" font-family="Times New Roman,serif" font-size="14.00">(10,5)139&#45;69&#45;19</text>
</g>
<!-- 4&#45;&gt;5 -->
<g id="edge5" class="edge"><title>4&#45;&gt;5</title>
<path fill="none" stroke="black" d="M608.131,-18.5C616.421,-18.5 625.07,-18.5 633.568,-18.5"/>
<polygon fill="black" stroke="black" points="633.826,-22.0001 643.826,-18.5 633.826,-15.0001 633.826,-22.0001"/>
</g>
<!-- 6 -->
<g id="node7" class="node"><title>6</title>
<polygon fill="#eee5de" stroke="black" points="786,-0.5 786,-36.5 892,-36.5 892,-0.5 786,-0.5"/>
<text text-anchor="middle" x="839" y="-14.8" font-family="Times New Roman,serif" font-size="14.00">(11,3)139&#45;69&#45;19</text>
</g>
<!-- 5&#45;&gt;6 -->
<g id="edge6" class="edge"><title>5&#45;&gt;6</title>
<path fill="none" stroke="black" d="M750.131,-18.5C758.421,-18.5 767.07,-18.5 775.568,-18.5"/>
<polygon fill="black" stroke="black" points="775.826,-22.0001 785.826,-18.5 775.826,-15.0001 775.826,-22.0001"/>
</g>
<!-- 7 -->
<g id="node8" class="node"><title>7</title>
<polygon fill="#eee5de" stroke="black" points="928,-0.5 928,-36.5 1034,-36.5 1034,-0.5 928,-0.5"/>
<text text-anchor="middle" x="981" y="-14.8" font-family="Times New Roman,serif" font-size="14.00">(11,6)139&#45;69&#45;19</text>
</g>
<!-- 6&#45;&gt;7 -->
<g id="edge7" class="edge"><title>6&#45;&gt;7</title>
<path fill="none" stroke="black" d="M892.131,-18.5C900.421,-18.5 909.07,-18.5 917.568,-18.5"/>
<polygon fill="black" stroke="black" points="917.826,-22.0001 927.826,-18.5 917.826,-15.0001 917.826,-22.0001"/>
</g>
<!-- 8 -->
<g id="node9" class="node"><title>8</title>
<polygon fill="#eee5de" stroke="black" points="1070,-0.5 1070,-36.5 1176,-36.5 1176,-0.5 1070,-0.5"/>
<text text-anchor="middle" x="1123" y="-14.8" font-family="Times New Roman,serif" font-size="14.00">(12,4)139&#45;69&#45;19</text>
</g>
<!-- 7&#45;&gt;8 -->
<g id="edge8" class="edge"><title>7&#45;&gt;8</title>
<path fill="none" stroke="black" d="M1034.13,-18.5C1042.42,-18.5 1051.07,-18.5 1059.57,-18.5"/>
<polygon fill="black" stroke="black" points="1059.83,-22.0001 1069.83,-18.5 1059.83,-15.0001 1059.83,-22.0001"/>
</g>
<!-- 9 -->
<g id="node10" class="node"><title>9</title>
<polygon fill="#eee5de" stroke="black" points="1212,-0.5 1212,-36.5 1318,-36.5 1318,-0.5 1212,-0.5"/>
<text text-anchor="middle" x="1265" y="-14.8" font-family="Times New Roman,serif" font-size="14.00">(12,5)139&#45;69&#45;19</text>
</g>
<!-- 8&#45;&gt;9 -->
<g id="edge9" class="edge"><title>8&#45;&gt;9</title>
<path fill="none" stroke="black" d="M1176.13,-18.5C1184.42,-18.5 1193.07,-18.5 1201.57,-18.5"/>
<polygon fill="black" stroke="black" points="1201.83,-22.0001 1211.83,-18.5 1201.83,-15.0001 1201.83,-22.0001"/>
</g>
<!-- 10 -->
<g id="node11" class="node"><title>10</title>
<polygon fill="#eee5de" stroke="black" points="1354,-0.5 1354,-36.5 1460,-36.5 1460,-0.5 1354,-0.5"/>
<text text-anchor="middle" x="1407" y="-14.8" font-family="Times New Roman,serif" font-size="14.00">(12,6)139&#45;69&#45;19</text>
</g>
<!-- 9&#45;&gt;10 -->
<g id="edge10" class="edge"><title>9&#45;&gt;10</title>
<path fill="none" stroke="black" d="M1318.13,-18.5C1326.42,-18.5 1335.07,-18.5 1343.57,-18.5"/>
<polygon fill="black" stroke="black" points="1343.83,-22.0001 1353.83,-18.5 1343.83,-15.0001 1343.83,-22.0001"/>
</g>
<!-- 11 -->
<g id="node12" class="node"><title>11</title>
<polygon fill="#eee5de" stroke="black" points="1496,-0.5 1496,-36.5 1550,-36.5 1550,-0.5 1496,-0.5"/>
<text text-anchor="middle" x="1523" y="-14.8" font-family="Times New Roman,serif" font-size="14.00">Fin</text>
</g>
<!-- 10&#45;&gt;11 -->
<g id="edge11" class="edge"><title>10&#45;&gt;11</title>
<path fill="none" stroke="black" d="M1460.33,-18.5C1468.88,-18.5 1477.56,-18.5 1485.62,-18.5"/>
<polygon fill="black" stroke="black" points="1485.77,-22.0001 1495.77,-18.5 1485.77,-15.0001 1485.77,-22.0001"/>
</g>
</g>
</svg>
